<?xml version="1.0" standalone="no"?>
<!DOCTYPE svg PUBLIC "-//W3C//DTD SVG 20010904//EN"
 "http://www.w3.org/TR/2001/REC-SVG-20010904/DTD/svg10.dtd">
<svg version="1.0" xmlns="http://www.w3.org/2000/svg"
 width="552.000000pt" height="552.000000pt" viewBox="0 0 552.000000 552.000000"
 preserveAspectRatio="xMidYMid meet">
<metadata>
Created by potrace 1.11, written by Peter Selinger 2001-2013
</metadata>
<g transform="translate(0.000000,552.000000) scale(0.100000,-0.100000)"
fill="#000000" stroke="none">
<path d="M1769 5376 c-2 -2 -69 -7 -149 -11 -80 -3 -165 -8 -190 -10 -25 -2
-81 -6 -126 -9 -45 -3 -94 -7 -110 -10 -16 -3 -56 -7 -90 -11 -33 -3 -71 -7
-85 -10 -13 -2 -46 -6 -74 -10 -27 -3 -75 -10 -105 -15 -30 -5 -71 -12 -90
-15 -36 -6 -223 -43 -250 -50 -224 -56 -379 -121 -452 -191 -41 -38 -52 -65
-44 -108 9 -49 52 -90 146 -140 153 -80 467 -160 785 -200 28 -4 68 -9 90 -12
49 -7 92 -11 170 -19 33 -3 78 -7 100 -10 22 -2 81 -7 130 -10 50 -4 124 -9
165 -12 126 -9 997 -8 1130 1 69 4 148 9 175 11 92 5 336 29 405 40 14 2 50 6
80 10 30 3 78 10 105 15 28 6 66 12 85 14 103 13 332 69 460 113 72 24 188 80
220 106 29 22 67 82 65 102 -1 11 -2 30 -3 41 -2 24 -60 84 -101 105 -14 8
-28 17 -31 20 -8 9 -158 67 -230 88 -57 18 -168 46 -225 57 -85 16 -124 24
-150 28 -16 3 -39 7 -50 9 -11 3 -45 8 -75 12 -30 4 -62 9 -70 10 -24 4 -169
22 -250 30 -83 9 -284 24 -405 31 -97 6 -951 14 -956 10z"/>
<path d="M0 3830 c0 -213 0 -214 63 -272 46 -43 253 -132 350 -152 12 -3 47
-11 77 -19 30 -8 73 -18 95 -22 22 -5 45 -9 50 -10 6 -2 27 -6 49 -9 21 -3 41
-8 45 -10 3 -2 29 -6 56 -10 28 -3 64 -8 80 -11 17 -3 46 -8 65 -11 43 -7 86
-12 245 -28 185 -19 398 -35 570 -42 107 -5 741 -4 830 0 179 9 324 18 365 21
70 5 181 16 225 21 22 3 58 7 80 9 53 6 134 16 166 21 15 2 44 6 65 9 22 3 50
7 64 10 14 3 40 8 59 11 18 3 43 8 55 10 11 3 35 7 51 10 65 11 205 47 295 76
174 56 288 124 313 188 11 26 13 77 11 200 -3 198 -4 210 -11 190 -11 -29 -78
-85 -138 -117 -56 -29 -184 -79 -230 -89 -41 -10 -50 -13 -52 -14 -4 -3 -4 -3
-78 -20 -33 -7 -64 -15 -70 -16 -5 -1 -25 -5 -44 -9 -19 -3 -37 -7 -40 -9 -3
-2 -31 -7 -61 -11 -30 -4 -57 -8 -60 -10 -3 -2 -26 -6 -50 -10 -25 -3 -56 -8
-70 -10 -29 -4 -82 -11 -160 -20 -30 -4 -66 -8 -80 -10 -40 -6 -159 -16 -340
-29 -352 -25 -1082 -26 -1350 -1 -25 3 -81 7 -125 9 -44 3 -100 7 -125 10 -25
3 -67 8 -95 11 -70 8 -102 12 -165 20 -30 4 -66 8 -80 10 -35 4 -101 14 -130
21 -14 3 -38 7 -55 9 -16 3 -41 7 -55 10 -14 4 -36 8 -50 11 -135 24 -366 97
-460 144 -58 29 -120 81 -139 115 -8 15 -10 -30 -11 -175z"/>
<path d="M3719 3005 c-2 -2 -31 -7 -64 -10 -33 -4 -63 -9 -68 -12 -4 -2 -19
-7 -33 -9 -91 -17 -364 -141 -364 -166 0 -5 -5 -8 -11 -8 -6 0 -16 -6 -23 -12
-8 -7 -24 -20 -36 -28 -26 -17 -142 -130 -180 -175 -23 -27 -93 -132 -132
-195 -49 -82 -120 -306 -133 -425 -7 -64 -7 -252 0 -285 3 -14 7 -41 10 -61
17 -125 96 -323 182 -452 68 -102 286 -317 321 -317 5 0 17 -9 27 -20 10 -11
21 -17 26 -15 4 3 11 0 14 -6 9 -14 131 -70 210 -96 104 -35 128 -41 210 -54
244 -36 495 5 712 116 l61 31 338 -333 c186 -183 339 -331 341 -330 1 1 91 90
198 196 l195 195 -334 335 -335 335 19 25 c10 14 18 29 19 33 1 5 15 36 31 70
112 231 141 536 75 788 -27 105 -115 307 -148 343 -7 6 -25 32 -42 57 -46 68
-161 185 -245 248 -135 102 -330 189 -485 218 -87 15 -151 21 -244 22 -60 0
-110 -1 -112 -3z m216 -520 c162 -19 313 -103 419 -231 49 -60 111 -170 123
-218 22 -93 25 -122 25 -201 -1 -49 -3 -97 -5 -105 -2 -8 -7 -33 -11 -55 -16
-82 -90 -216 -163 -292 -77 -81 -192 -158 -258 -173 -3 -1 -19 -6 -37 -11 -18
-6 -42 -13 -53 -16 -43 -12 -213 -11 -266 2 -251 61 -438 237 -501 475 -18 65
-20 83 -21 175 -1 91 7 137 36 218 84 230 303 409 531 433 28 3 52 7 54 8 3 3
64 -1 127 -9z"/>
<path d="M0 2550 c0 -169 2 -198 18 -221 43 -64 119 -110 274 -164 40 -14 73
-25 73 -25 0 1 7 -1 15 -3 27 -9 174 -46 205 -52 27 -5 167 -30 220 -39 56
-10 93 -16 125 -20 19 -3 58 -7 85 -11 28 -3 65 -8 84 -11 18 -2 63 -7 100 -9
36 -3 84 -7 106 -10 46 -4 196 -15 294 -21 127 -7 778 -12 788 -5 6 3 14 29
17 56 6 43 13 84 30 170 3 14 44 150 46 150 0 0 -159 0 -353 1 -313 1 -418 4
-667 19 -93 5 -250 20 -330 30 -19 3 -60 7 -90 11 -30 3 -68 7 -85 9 -16 2
-61 9 -100 15 -38 6 -81 13 -95 15 -14 2 -59 10 -100 19 -41 8 -86 17 -100 20
-59 10 -228 59 -304 88 -112 42 -209 103 -235 147 l-21 36 0 -195z"/>
<path d="M0 1271 c0 -179 2 -196 21 -227 66 -108 333 -202 789 -280 14 -2 45
-6 69 -9 24 -2 51 -7 60 -9 9 -3 48 -8 86 -11 39 -4 81 -8 95 -10 56 -8 109
-14 190 -20 47 -4 101 -8 120 -10 206 -20 1060 -26 1335 -10 72 4 136 7 144 8
7 0 -28 41 -79 91 -51 50 -111 116 -134 146 -23 30 -49 64 -58 74 -10 11 -20
27 -23 35 -4 14 -54 16 -447 16 -385 1 -608 7 -738 20 -19 2 -78 7 -130 10
-52 3 -102 8 -110 10 -8 2 -48 7 -88 10 -41 4 -83 8 -95 11 -12 2 -42 6 -67
10 -25 3 -94 14 -155 24 -60 11 -126 22 -145 25 -19 3 -82 17 -138 31 -274 67
-444 148 -488 232 -12 24 -14 7 -14 -167z"/>
</g>
</svg>
